<svg xmlns="http://www.w3.org/2000/svg" xmlns:xlink="http://www.w3.org/1999/xlink" width="1200" height="300" viewBox="0 0 1200 300"><rect width="100%" height="100%" fill="#DDDDDD"/><path d="M286.01 188.47L304.60 188.47L304.60 201.69L247.40 201.69L247.40 188.47L268.35 188.47L268.35 128.19Q268.35 124.62 268.56 120.83L268.56 120.83L253.69 133.27Q252.40 134.27 251.15 134.52Q249.90 134.77 248.79 134.56Q247.68 134.34 246.83 133.81Q245.97 133.27 245.54 132.63L245.54 132.63L239.96 124.97L271.49 98.16L286.01 98.16L286.01 188.47ZM357.15 185.25L383.68 185.25Q386.54 185.25 388.22 186.86Q389.90 188.47 389.90 191.11L389.90 191.11L389.90 201.69L318.97 201.69L318.97 195.83Q318.97 194.04 319.72 192.08Q320.47 190.11 322.12 188.54L322.12 188.54L353.50 157.08Q357.44 153.07 360.55 149.43Q363.66 145.78 365.73 142.21Q367.80 138.63 368.91 134.95Q370.02 131.27 370.02 127.19L370.02 127.19Q370.02 123.47 368.95 120.65Q367.88 117.82 365.91 115.89Q363.94 113.96 361.19 113.00Q358.44 112.03 355.01 112.03L355.01 112.03Q351.86 112.03 349.18 112.93Q346.50 113.82 344.42 115.43Q342.35 117.04 340.92 119.18Q339.49 121.33 338.77 123.90L338.77 123.90Q337.56 127.19 335.63 128.26Q333.70 129.34 330.05 128.76L330.05 128.76L320.76 127.12Q321.83 119.68 324.90 114.07Q327.98 108.46 332.59 104.70Q337.20 100.95 343.17 99.06Q349.14 97.16 356.01 97.16L356.01 97.16Q363.16 97.16 369.09 99.27Q375.03 101.38 379.24 105.24Q383.46 109.10 385.82 114.54Q388.18 119.97 388.18 126.62L388.18 126.62Q388.18 132.34 386.50 137.20Q384.82 142.06 382.00 146.50Q379.17 150.93 375.38 155.08Q371.59 159.22 367.45 163.51L367.45 163.51L344.14 187.32Q347.50 186.32 350.82 185.79Q354.15 185.25 357.15 185.25L357.15 185.25ZM475.84 150L475.84 150Q475.84 163.51 472.94 173.49Q470.05 183.46 464.94 189.97Q459.82 196.47 452.85 199.66Q445.88 202.84 437.80 202.84L437.80 202.84Q429.72 202.84 422.82 199.66Q415.92 196.47 410.85 189.97Q405.77 183.46 402.91 173.49Q400.05 163.51 400.05 150L400.05 150Q400.05 136.41 402.91 126.48Q405.77 116.54 410.85 110.03Q415.92 103.52 422.82 100.34Q429.72 97.16 437.80 97.16L437.80 97.16Q445.88 97.16 452.85 100.34Q459.82 103.52 464.94 110.03Q470.05 116.54 472.94 126.48Q475.84 136.41 475.84 150ZM457.61 150L457.61 150Q457.61 138.77 455.96 131.41Q454.32 124.05 451.57 119.68Q448.81 115.32 445.24 113.57Q441.66 111.82 437.80 111.82L437.80 111.82Q434.01 111.82 430.47 113.57Q426.93 115.32 424.22 119.68Q421.50 124.05 419.89 131.41Q418.28 138.77 418.28 150L418.28 150Q418.28 161.23 419.89 168.59Q421.50 175.95 424.22 180.32Q426.93 184.68 430.47 186.43Q434.01 188.18 437.80 188.18L437.80 188.18Q441.66 188.18 445.24 186.43Q448.81 184.68 451.57 180.32Q454.32 175.95 455.96 168.59Q457.61 161.23 457.61 150ZM558.78 150L558.78 150Q558.78 163.51 555.88 173.49Q552.99 183.46 547.88 189.97Q542.76 196.47 535.79 199.66Q528.82 202.84 520.74 202.84L520.74 202.84Q512.66 202.84 505.76 199.66Q498.86 196.47 493.79 189.97Q488.71 183.46 485.85 173.49Q482.99 163.51 482.99 150L482.99 150Q482.99 136.41 485.85 126.48Q488.71 116.54 493.79 110.03Q498.86 103.52 505.76 100.34Q512.66 97.16 520.74 97.16L520.74 97.16Q528.82 97.16 535.79 100.34Q542.76 103.52 547.88 110.03Q552.99 116.54 555.88 126.48Q558.78 136.41 558.78 150ZM540.55 150L540.55 150Q540.55 138.77 538.90 131.41Q537.26 124.05 534.51 119.68Q531.75 115.32 528.18 113.57Q524.60 111.82 520.74 111.82L520.74 111.82Q516.95 111.82 513.41 113.57Q509.87 115.32 507.16 119.68Q504.44 124.05 502.83 131.41Q501.22 138.77 501.22 150L501.22 150Q501.22 161.23 502.83 168.59Q504.44 175.95 507.16 180.32Q509.87 184.68 513.41 186.43Q516.95 188.18 520.74 188.18L520.74 188.18Q524.60 188.18 528.18 186.43Q531.75 184.68 534.51 180.32Q537.26 175.95 538.90 168.59Q540.55 161.23 540.55 150ZM672.32 178.03L662.96 187.25L638.72 163.01L614.26 187.39L604.90 178.17L629.35 153.65L606.04 130.34L615.34 121.04L638.65 144.35L661.81 121.19L671.25 130.48L648.01 153.72L672.32 178.03ZM731.81 128.76L722.52 127.12Q723.59 119.68 726.66 114.07Q729.74 108.46 734.35 104.70Q738.96 100.95 744.93 99.06Q750.90 97.16 757.76 97.16L757.76 97.16Q764.91 97.16 770.67 99.20Q776.43 101.24 780.50 104.85Q784.58 108.46 786.76 113.32Q788.94 118.18 788.94 123.83L788.94 123.83Q788.94 128.76 787.83 132.52Q786.72 136.27 784.65 139.06Q782.58 141.85 779.50 143.78Q776.43 145.71 772.57 147.00L772.57 147.00Q781.86 149.93 786.44 155.93Q791.01 161.94 791.01 171.02L791.01 171.02Q791.01 178.74 788.15 184.68Q785.29 190.61 780.43 194.65Q775.57 198.69 769.17 200.77Q762.77 202.84 755.62 202.84L755.62 202.84Q747.83 202.84 742.03 201.05Q736.24 199.26 731.95 195.76Q727.66 192.26 724.66 187.18Q721.66 182.10 719.51 175.45L719.51 175.45L727.31 172.24Q730.38 170.95 733.06 171.56Q735.74 172.16 736.96 174.45L736.96 174.45Q738.25 176.96 739.78 179.39Q741.32 181.82 743.46 183.71Q745.61 185.61 748.51 186.79Q751.40 187.97 755.41 187.97L755.41 187.97Q759.91 187.97 763.27 186.50Q766.63 185.03 768.88 182.68Q771.14 180.32 772.24 177.42Q773.35 174.52 773.35 171.59L773.35 171.59Q773.35 167.88 772.57 164.84Q771.78 161.80 769.28 159.65Q766.77 157.51 762.09 156.29Q757.41 155.08 749.54 155.08L749.54 155.08L749.54 142.49Q756.05 142.42 760.34 141.28Q764.63 140.13 767.17 138.10Q769.71 136.06 770.71 133.20Q771.71 130.34 771.71 126.91L771.71 126.91Q771.71 119.61 767.63 115.82Q763.56 112.03 756.76 112.03L756.76 112.03Q753.62 112.03 750.97 112.93Q748.33 113.82 746.22 115.43Q744.11 117.04 742.68 119.18Q741.25 121.33 740.53 123.90L740.53 123.90Q739.32 127.19 737.35 128.26Q735.39 129.34 731.81 128.76L731.81 128.76ZM877.10 150L877.10 150Q877.10 163.51 874.20 173.49Q871.31 183.46 866.19 189.97Q861.08 196.47 854.11 199.66Q847.14 202.84 839.06 202.84L839.06 202.84Q830.98 202.84 824.08 199.66Q817.18 196.47 812.10 189.97Q807.03 183.46 804.17 173.49Q801.31 163.51 801.31 150L801.31 150Q801.31 136.41 804.17 126.48Q807.03 116.54 812.10 110.03Q817.18 103.52 824.08 100.34Q830.98 97.16 839.06 97.16L839.06 97.16Q847.14 97.16 854.11 100.34Q861.08 103.52 866.19 110.03Q871.31 116.54 874.20 126.48Q877.10 136.41 877.10 150ZM858.87 150L858.87 150Q858.87 138.77 857.22 131.41Q855.58 124.05 852.82 119.68Q850.07 115.32 846.50 113.57Q842.92 111.82 839.06 111.82L839.06 111.82Q835.27 111.82 831.73 113.57Q828.19 115.32 825.48 119.68Q822.76 124.05 821.15 131.41Q819.54 138.77 819.54 150L819.54 150Q819.54 161.23 821.15 168.59Q822.76 175.95 825.48 180.32Q828.19 184.68 831.73 186.43Q835.27 188.18 839.06 188.18L839.06 188.18Q842.92 188.18 846.50 186.43Q850.07 184.68 852.82 180.32Q855.58 175.95 857.22 168.59Q858.87 161.23 858.87 150ZM960.04 150L960.04 150Q960.04 163.51 957.14 173.49Q954.25 183.46 949.13 189.97Q944.02 196.47 937.05 199.66Q930.08 202.84 922.00 202.84L922.00 202.84Q913.92 202.84 907.02 199.66Q900.12 196.47 895.04 189.97Q889.97 183.46 887.11 173.49Q884.25 163.51 884.25 150L884.25 150Q884.25 136.41 887.11 126.48Q889.97 116.54 895.04 110.03Q900.12 103.52 907.02 100.34Q913.92 97.16 922.00 97.16L922.00 97.16Q930.08 97.16 937.05 100.34Q944.02 103.52 949.13 110.03Q954.25 116.54 957.14 126.48Q960.04 136.41 960.04 150ZM941.81 150L941.81 150Q941.81 138.77 940.16 131.41Q938.52 124.05 935.76 119.68Q933.01 115.32 929.44 113.57Q925.86 111.82 922.00 111.82L922.00 111.82Q918.21 111.82 914.67 113.57Q911.13 115.32 908.42 119.68Q905.70 124.05 904.09 131.41Q902.48 138.77 902.48 150L902.48 150Q902.48 161.23 904.09 168.59Q905.70 175.95 908.42 180.32Q911.13 184.68 914.67 186.43Q918.21 188.18 922.00 188.18L922.00 188.18Q925.86 188.18 929.44 186.43Q933.01 184.68 935.76 180.32Q938.52 175.95 940.16 168.59Q941.81 161.23 941.81 150Z" fill="#999999"/></svg>